<svg xmlns="http://www.w3.org/2000/svg" xmlns:xlink="http://www.w3.org/1999/xlink" width="1366" zoomAndPan="magnify" viewBox="0 0 1024.5 576" height="768" preserveAspectRatio="xMidYMid meet" version="1.0"><defs><clipPath id="69ac96cd8b"><path d="M 294.105469 108.0625 L 729.640625 108.0625 L 729.640625 543.597656 L 294.105469 543.597656 Z M 294.105469 108.0625 " clip-rule="nonzero"/></clipPath></defs><g clip-path="url(#69ac96cd8b)"><path fill="#ffffff" d="M 294.105469 108.0625 L 729.640625 108.0625 L 729.640625 543.597656 L 294.105469 543.597656 Z M 294.105469 108.0625 " fill-opacity="1" fill-rule="nonzero"/></g><path fill="#024f9d" d="M 409.847656 221.101562 C 412.917969 221.085938 416.125 221.019531 419.175781 221.171875 C 420.445312 221.871094 429.484375 229.941406 431.207031 231.480469 C 440.46875 239.75 450.238281 247.867188 459.390625 256.21875 L 459.390625 286.957031 L 459.398438 307.148438 C 451.152344 307.382812 442.015625 307.183594 433.699219 307.179688 L 433.714844 280.503906 C 431.332031 279.074219 426.910156 275.746094 424.5 274.0625 C 418.996094 270.214844 413.242188 266.28125 407.832031 262.320312 C 406.6875 263.242188 405.175781 264.335938 403.949219 265.144531 C 396.65625 269.96875 389.496094 275.757812 382.058594 280.316406 L 382.082031 307.144531 C 373.6875 307.445312 364.625 306.871094 356.257812 307.253906 C 356.398438 302.984375 356.214844 298.253906 356.269531 293.933594 C 356.425781 281.425781 356.039062 268.632812 356.296875 256.152344 C 359.15625 253.9375 363.472656 249.933594 366.324219 247.445312 L 385.957031 230.328125 C 387.808594 228.714844 395.472656 221.574219 397.375 221.125 C 399.953125 221.015625 403.097656 221.101562 405.71875 221.101562 C 404.230469 223.449219 401.851562 225.632812 399.871094 227.648438 C 396.351562 231.246094 392.8125 234.820312 389.257812 238.375 C 384.722656 242.832031 373.761719 251.40625 379.96875 258.726562 C 385.84375 265.652344 396.960938 262.101562 402.320312 256.34375 C 403.429688 255.15625 406.875 251.078125 408.738281 251.667969 C 409.265625 251.855469 410.695312 253.675781 411.183594 254.210938 C 416.488281 261.113281 426.605469 265.257812 434.460938 260.09375 C 435.976562 258.996094 437.5625 256.832031 437.664062 254.914062 C 437.972656 249.082031 431.679688 243.691406 427.996094 239.925781 L 416.566406 228.175781 C 414.527344 226.082031 411.878906 223.574219 410.078125 221.382812 Z M 409.847656 221.101562 " fill-opacity="1" fill-rule="nonzero"/><path fill="#c60f2f" d="M 514.246094 237.394531 C 520.816406 237.570312 531.816406 236.34375 537.355469 239.300781 C 539.949219 240.671875 541.886719 243.023438 542.730469 245.832031 C 544.699219 252.625 540.890625 258.867188 534.144531 260.726562 C 537.402344 265.890625 540.535156 271.300781 543.695312 276.550781 C 541.871094 276.425781 538.460938 276.535156 536.535156 276.546875 L 534.441406 276.53125 C 531.589844 271.4375 528.492188 266.34375 525.742188 261.222656 C 524.371094 261.300781 523.339844 261.273438 521.96875 261.230469 C 521.972656 266.191406 521.875 271.648438 522.046875 276.5625 C 519.441406 276.527344 516.835938 276.535156 514.226562 276.578125 C 514.042969 263.753906 514.171875 250.238281 514.246094 237.394531 Z M 514.246094 237.394531 " fill-opacity="1" fill-rule="nonzero"/><path fill="#ffffff" d="M 521.976562 243.871094 C 526.625 243.859375 534.945312 242.5625 534.988281 249.183594 C 535.003906 251.433594 534.6875 252.546875 533.113281 254.152344 C 530.265625 256.03125 525.386719 255.523438 521.96875 255.488281 C 522.097656 251.84375 521.988281 247.5625 521.976562 243.871094 Z M 521.976562 243.871094 " fill-opacity="1" fill-rule="nonzero"/><path fill="#c60f2f" d="M 486.75 237.058594 C 495.796875 235.867188 504.402344 240.3125 507.386719 249.140625 C 504.367188 249.160156 501.347656 249.152344 498.332031 249.121094 C 497.039062 247.132812 495.167969 245.382812 492.871094 244.683594 C 480.894531 241.050781 473.449219 253.863281 478.679688 263.699219 C 480.121094 266.464844 482.644531 268.515625 485.644531 269.359375 C 492.519531 271.308594 498.71875 268.003906 500.476562 260.90625 C 495.996094 260.777344 491.519531 260.769531 487.042969 260.882812 L 487.027344 257.914062 L 487.0625 254.785156 L 508.320312 254.800781 C 508.113281 260.640625 508.949219 263.828125 505.019531 269.105469 C 501.996094 273.207031 497.4375 275.90625 492.386719 276.582031 C 464.554688 280.542969 460.046875 240.21875 486.75 237.058594 Z M 486.75 237.058594 " fill-opacity="1" fill-rule="nonzero"/><path fill="#c60f2f" d="M 561.984375 237.300781 C 565 237.4375 568.257812 237.367188 571.296875 237.351562 C 571.8125 239.472656 573.875 244.496094 574.710938 246.898438 C 578.175781 256.832031 581.75 266.726562 585.433594 276.578125 C 582.613281 276.523438 579.789062 276.519531 576.96875 276.566406 C 576.117188 274.070312 575.253906 271.746094 574.613281 269.179688 C 573.625 269.078125 572.59375 269.074219 571.59375 269.046875 C 567.289062 269.070312 562.976562 269.054688 558.671875 268.996094 C 558.207031 270.914062 556.9375 274.445312 556.300781 276.523438 C 553.515625 276.574219 550.605469 276.53125 547.808594 276.527344 L 557.644531 249.402344 C 559.097656 245.355469 560.660156 241.398438 561.984375 237.300781 Z M 561.984375 237.300781 " fill-opacity="1" fill-rule="nonzero"/><path fill="#ffffff" d="M 566.367188 246.867188 C 567.546875 247.890625 571.488281 260.640625 572.207031 262.710938 L 566.859375 262.699219 L 560.953125 262.710938 C 562.605469 258.3125 565.15625 251.242188 566.367188 246.867188 Z M 566.367188 246.867188 " fill-opacity="1" fill-rule="nonzero"/><path fill="#c60f2f" d="M 606.429688 237.0625 C 613.148438 236.375 619.816406 238.382812 624.089844 243.765625 C 625.582031 245.648438 626.386719 247.457031 627.390625 249.609375 C 624.359375 249.542969 621.207031 249.589844 618.164062 249.597656 C 614.550781 243.019531 605.703125 241.929688 600.519531 247.175781 C 593.242188 254.535156 597.164062 270.75 609.195312 269.863281 C 613.007812 269.582031 614.679688 268.566406 617.207031 265.820312 L 618.1875 264.210938 C 621.175781 264.277344 624.347656 264.226562 627.351562 264.230469 C 624.214844 271.085938 620.355469 275.375 612.476562 276.539062 C 606.828125 277.375 601.097656 276.476562 596.457031 272.972656 C 592.320312 269.859375 589.613281 265.207031 588.949219 260.074219 C 587.375 248.144531 594.386719 238.519531 606.429688 237.0625 Z M 606.429688 237.0625 " fill-opacity="1" fill-rule="nonzero"/><path fill="#c60f2f" d="M 633.910156 237.386719 L 656.878906 237.375 C 656.851562 239.464844 656.867188 241.613281 656.863281 243.707031 L 641.90625 243.675781 L 641.921875 253.511719 L 655.167969 253.433594 L 655.171875 259.859375 L 641.90625 259.828125 L 641.921875 264.09375 L 641.917969 270.132812 L 656.867188 270.136719 C 656.851562 272.277344 656.859375 274.417969 656.878906 276.558594 L 633.921875 276.535156 C 634.011719 263.625 634.058594 250.285156 633.910156 237.386719 Z M 633.910156 237.386719 " fill-opacity="1" fill-rule="nonzero"/><path fill="#024f9d" d="M 508.339844 289.050781 C 514.367188 289.03125 521.5 288.023438 519.960938 296.585938 C 518.625 298.347656 518.019531 298.714844 516.039062 299.425781 C 517.574219 301.84375 519.1875 304.28125 520.519531 306.8125 C 519.410156 306.847656 518.710938 306.851562 517.597656 306.785156 C 516.210938 304.234375 514.90625 301.792969 513.347656 299.339844 L 510.773438 299.460938 L 510.765625 306.777344 C 510.050781 306.824219 509.019531 306.964844 508.464844 306.5625 C 508.230469 304.894531 508.359375 301.738281 508.363281 299.929688 Z M 508.339844 289.050781 " fill-opacity="1" fill-rule="nonzero"/><path fill="#ffffff" d="M 510.78125 291.011719 C 514.679688 290.921875 520.382812 291.542969 516.800781 296.894531 C 514.664062 297.90625 513.117188 297.667969 510.773438 297.640625 Z M 510.78125 291.011719 " fill-opacity="1" fill-rule="nonzero"/><path fill="#024f9d" d="M 604.433594 289.039062 C 607.867188 289.027344 614.617188 288.398438 615.976562 292.132812 C 617.285156 295.722656 615.285156 298.332031 612.050781 299.429688 C 613.722656 301.898438 615.164062 304.121094 616.5 306.789062 C 615.574219 306.851562 614.289062 307.0625 613.570312 306.535156 C 612.1875 304.265625 611.289062 301.640625 609.535156 299.882812 C 608.851562 299.195312 607.800781 299.402344 606.820312 299.464844 L 606.839844 306.058594 C 606.242188 306.957031 605.484375 307.203125 604.597656 306.527344 C 604.222656 304.492188 604.421875 291.988281 604.433594 289.039062 Z M 604.433594 289.039062 " fill-opacity="1" fill-rule="nonzero"/><path fill="#ffffff" d="M 606.832031 291.011719 C 608.835938 290.960938 610.726562 290.78125 612.554688 291.808594 C 614.664062 292.996094 614.160156 295.113281 612.914062 296.761719 C 611.054688 297.929688 609.023438 297.664062 606.8125 297.667969 Z M 606.832031 291.011719 " fill-opacity="1" fill-rule="nonzero"/><path fill="#024f9d" d="M 560.308594 289.105469 L 562.613281 289.152344 C 564.796875 293.757812 567.308594 301.636719 569.25 306.839844 L 566.535156 306.796875 L 565.34375 302.753906 C 564.3125 302.769531 563.277344 302.78125 562.246094 302.78125 L 557.519531 302.835938 C 557.242188 303.882812 556.910156 305.769531 556.101562 306.503906 C 555.671875 306.898438 554.414062 307.03125 553.964844 306.511719 C 554.183594 305.195312 555.347656 302.273438 555.863281 300.875 C 557.285156 297.027344 558.597656 292.824219 560.308594 289.105469 Z M 560.308594 289.105469 " fill-opacity="1" fill-rule="nonzero"/><path fill="#ffffff" d="M 561.300781 292.605469 C 561.914062 293.109375 564.140625 299.589844 564.601562 300.824219 L 561.65625 300.820312 L 558.242188 300.785156 C 559.207031 298.367188 560.613281 295.03125 561.300781 292.605469 Z M 561.300781 292.605469 " fill-opacity="1" fill-rule="nonzero"/><path fill="#024f9d" d="M 495.214844 289.074219 L 497.816406 289.25 C 498.984375 292.5 503.640625 304.082031 503.820312 306.597656 L 503.429688 306.855469 C 500.972656 306.792969 501.046875 304.984375 500.347656 302.777344 L 497.496094 302.785156 L 492.625 302.808594 C 492.140625 304.421875 491.542969 308.03125 488.996094 306.566406 C 489.015625 305.6875 494.515625 290.71875 495.214844 289.074219 Z M 495.214844 289.074219 " fill-opacity="1" fill-rule="nonzero"/><path fill="#ffffff" d="M 496.445312 292.597656 C 497.199219 293.210938 499.054688 299.511719 499.472656 300.828125 L 496.902344 300.8125 L 493.308594 300.785156 C 494.4375 298.046875 495.167969 295.46875 496.445312 292.597656 Z M 496.445312 292.597656 " fill-opacity="1" fill-rule="nonzero"/><path fill="#024f9d" d="M 575.480469 297.148438 C 577.871094 295.09375 579.292969 292.898438 581.425781 290.710938 C 583.179688 288.914062 583.726562 288.980469 585.964844 288.988281 C 583.605469 291.925781 580.527344 294.976562 577.992188 297.910156 L 582.492188 302.867188 C 583.855469 304.300781 584.792969 305.277344 585.972656 306.890625 L 583.074219 306.855469 L 575.644531 298.722656 C 575.703125 301.351562 575.675781 304.085938 575.683594 306.722656 C 574.671875 306.804688 574.21875 306.976562 573.441406 306.554688 C 573.234375 305.457031 573.339844 302.171875 573.339844 300.828125 C 573.324219 296.898438 573.351562 292.96875 573.425781 289.039062 C 574.167969 289.019531 575.144531 288.863281 575.613281 289.445312 C 575.832031 291.296875 575.71875 295.300781 575.480469 297.148438 Z M 575.480469 297.148438 " fill-opacity="1" fill-rule="nonzero"/><path fill="#024f9d" d="M 475.074219 289.054688 C 480.144531 288.585938 482.617188 289.746094 485.164062 294.15625 L 482.300781 294.34375 C 476.164062 284.417969 465.289062 297.3125 473.085938 303.65625 C 474.609375 304.898438 477.261719 304.777344 479.113281 304.390625 C 480.90625 303.503906 481.171875 303.140625 482.28125 301.546875 L 485.328125 301.679688 C 482.230469 306.003906 477.9375 308.878906 472.667969 305.878906 C 470.457031 304.597656 468.867188 302.464844 468.269531 299.976562 C 467.039062 294.84375 469.992188 290.28125 475.074219 289.054688 Z M 475.074219 289.054688 " fill-opacity="1" fill-rule="nonzero"/><path fill="#024f9d" d="M 624.726562 289.070312 C 626.445312 288.882812 627.722656 288.828125 629.359375 289.46875 C 631.210938 290.191406 633.441406 291.253906 632.101562 293.59375 C 631.246094 293.917969 630.113281 293.027344 629.625 292.460938 C 625.730469 287.957031 619.457031 294.191406 626.167969 296.40625 C 628.476562 297.164062 632.058594 298.125 632.730469 300.648438 C 633.59375 303.886719 631.125 305.984375 628.296875 306.90625 C 626.882812 307.222656 625.40625 307.078125 624.078125 306.496094 C 621.960938 305.554688 621.242188 304.085938 620.539062 302.109375 C 624.140625 301.671875 622.695312 302.734375 625.253906 304.527344 C 626.53125 305.101562 629.464844 304.773438 629.984375 303.335938 C 632.09375 297.609375 622.648438 299.816406 621.199219 295.671875 C 620.015625 292.28125 621.609375 290.222656 624.726562 289.070312 Z M 624.726562 289.070312 " fill-opacity="1" fill-rule="nonzero"/><path fill="#024f9d" d="M 589.925781 289.023438 C 591.652344 289.109375 598.496094 288.769531 599.394531 289.355469 C 599.5 290.15625 599.558594 289.792969 599.238281 290.5 C 598.007812 291.410156 594.199219 291.03125 592.414062 290.996094 L 592.433594 296.863281 C 593.621094 296.847656 597.570312 296.660156 598.40625 297.058594 C 598.90625 297.710938 598.785156 297.351562 598.773438 298.175781 C 597.65625 299.578125 595.082031 298.425781 592.675781 298.871094 C 592.304688 299.347656 592.445312 299.75 592.425781 300.515625 L 592.421875 304.699219 C 594.40625 304.730469 598.359375 303.9375 599.449219 305.617188 C 599.457031 306.421875 599.613281 306.15625 599.230469 306.621094 C 596.945312 306.914062 592.503906 306.78125 589.941406 306.855469 Z M 589.925781 289.023438 " fill-opacity="1" fill-rule="nonzero"/><path fill="#024f9d" d="M 525.234375 289.050781 C 526.992188 289.101562 533.566406 288.789062 534.71875 289.359375 C 534.828125 290.175781 534.890625 289.792969 534.496094 290.542969 C 533.117188 291.375 529.472656 291.03125 527.5625 291.023438 L 527.550781 296.839844 C 528.691406 296.855469 533.332031 296.675781 533.992188 297.089844 C 534.792969 300.484375 529.167969 297.839844 527.789062 299.023438 C 527.519531 299.257812 527.589844 299.707031 527.5625 300.078125 L 527.550781 304.695312 C 529.539062 304.734375 533.503906 304.003906 534.730469 305.535156 C 534.792969 306.339844 534.929688 306.058594 534.546875 306.535156 C 532.351562 306.902344 527.679688 306.816406 525.234375 306.84375 Z M 525.234375 289.050781 " fill-opacity="1" fill-rule="nonzero"/><path fill="#024f9d" d="M 538.664062 289.113281 C 540.792969 289.085938 548.683594 288.855469 550.246094 289.1875 C 550.6875 289.851562 550.539062 289.742188 550.570312 290.679688 C 550.066406 291.164062 546.824219 290.992188 545.828125 290.996094 C 545.785156 294.679688 545.816406 298.414062 545.816406 302.101562 C 545.824219 303.09375 546.023438 306.171875 545.429688 306.808594 C 544.660156 306.828125 544.308594 306.902344 543.597656 306.59375 C 543.214844 305.472656 543.441406 293.078125 543.449219 290.988281 C 541.769531 290.96875 540.257812 291.371094 538.851562 290.761719 C 538.402344 290.011719 538.558594 290.191406 538.664062 289.113281 Z M 538.664062 289.113281 " fill-opacity="1" fill-rule="nonzero"/><path fill="#c60f2f" d="M 408.636719 290.558594 L 416.085938 290.605469 C 416.089844 291.785156 416.253906 297.460938 415.800781 298.054688 C 413.417969 298.027344 411.035156 298.046875 408.652344 298.117188 Z M 408.636719 290.558594 " fill-opacity="1" fill-rule="nonzero"/><path fill="#c60f2f" d="M 398.203125 290.570312 L 405.632812 290.585938 C 405.636719 291.898438 405.8125 297.421875 405.316406 298.113281 C 402.875 298.066406 400.660156 298.023438 398.214844 298.117188 Z M 398.203125 290.570312 " fill-opacity="1" fill-rule="nonzero"/><path fill="#c60f2f" d="M 398.222656 280.015625 C 400.019531 280.152344 403.675781 280.050781 405.609375 280.050781 L 405.617188 287.496094 L 398.207031 287.488281 Z M 398.222656 280.015625 " fill-opacity="1" fill-rule="nonzero"/><path fill="#c60f2f" d="M 408.730469 279.980469 C 410.046875 280.140625 414.527344 280.058594 416.078125 280.066406 C 416.042969 282.503906 416.085938 285.035156 416.09375 287.480469 L 408.648438 287.492188 C 408.628906 285.332031 408.527344 282.039062 408.730469 279.980469 Z M 408.730469 279.980469 " fill-opacity="1" fill-rule="nonzero"/><path fill="#024f9d" d="M 661.652344 294.289062 C 663.878906 294.191406 668.113281 295.109375 667.535156 298.105469 L 667.160156 298.226562 C 665.375 297.523438 664.117188 294.984375 661.644531 295.753906 C 655.402344 297.703125 657.742188 307.488281 664.457031 305.050781 C 665.277344 304.414062 666.640625 302.753906 667.667969 303.503906 C 667.578125 305.09375 665.457031 306.550781 664.066406 306.96875 C 662.578125 307.417969 660.964844 307.066406 659.632812 306.335938 C 658.125 305.527344 657.011719 304.140625 656.554688 302.492188 C 655.453125 298.527344 657.714844 295.179688 661.652344 294.289062 Z M 661.652344 294.289062 " fill-opacity="1" fill-rule="nonzero"/><path fill="#024f9d" d="M 648.195312 294.402344 C 648.753906 294.402344 649.070312 294.441406 649.617188 294.496094 C 650.203125 295.238281 649.898438 303.949219 649.878906 305.554688 C 651.183594 305.484375 652.601562 305.285156 653.820312 305.640625 C 654.398438 306.15625 654.21875 305.941406 654.316406 306.949219 C 652.277344 306.992188 650.238281 306.984375 648.199219 306.921875 Z M 648.195312 294.402344 " fill-opacity="1" fill-rule="nonzero"/><path fill="#024f9d" d="M 640.398438 307.066406 C 639.757812 306.976562 640.027344 307.101562 639.546875 306.714844 C 639.328125 303.851562 639.355469 297.703125 639.691406 294.683594 C 639.722656 294.367188 639.796875 294.417969 640.183594 294.238281 C 640.730469 294.4375 641.273438 295.023438 641.265625 295.625 C 641.230469 298.929688 641.222656 302.230469 641.21875 305.535156 C 640.957031 306.003906 640.609375 306.585938 640.398438 307.066406 Z M 640.398438 307.066406 " fill-opacity="1" fill-rule="nonzero"/><path fill="#024f9d" d="M 641.21875 305.535156 C 642.511719 305.519531 644.183594 305.410156 645.390625 305.714844 C 645.675781 306.273438 645.601562 305.96875 645.453125 306.675781 C 644.601562 307.222656 641.65625 306.945312 640.398438 307.066406 C 640.609375 306.585938 640.957031 306.003906 641.21875 305.535156 Z M 641.21875 305.535156 " fill-opacity="1" fill-rule="nonzero"/></svg>